<?xml version="1.0" encoding="utf-8"?>
<!-- Generator: Adobe Illustrator 17.1.0, SVG Export Plug-In . SVG Version: 6.00 Build 0)  -->
<!DOCTYPE svg PUBLIC "-//W3C//DTD SVG 1.1//EN" "http://www.w3.org/Graphics/SVG/1.1/DTD/svg11.dtd">
<svg version="1.1" id="Calque_1" xmlns="http://www.w3.org/2000/svg" xmlns:xlink="http://www.w3.org/1999/xlink" x="0px" y="0px"
	 viewBox="0 0 25 25" enable-background="new 0 0 25 25" xml:space="preserve">
<path fill="#FFFFFF" stroke="#FFFFFF" d="M9,4.5c0,2.2,1.8,4,4,4s4-1.8,4-4s-1.8-4-4-4S9,2.3,9,4.5z"/>
<path fill="#FFFFFF" stroke="#FFFFFF" d="M9,13v9H7.8c-0.7,0-1.3,0.6-1.3,1.2c0,0.7,0.6,1.3,1.3,1.3h10.5c0.7,0,1.3-0.6,1.3-1.3
	c0-0.7-0.6-1.2-1.3-1.2H17V11.6c0-0.6-0.5-1.1-1.1-1.1H7.8c-0.7,0-1.3,0.6-1.3,1.3s0.6,1.3,1.3,1.3H9V13z"/>
</svg>
