<?xml version="1.0" encoding="utf-8"?>
<!-- Generator: Adobe Illustrator 17.1.0, SVG Export Plug-In . SVG Version: 6.00 Build 0)  -->
<!DOCTYPE svg PUBLIC "-//W3C//DTD SVG 1.1//EN" "http://www.w3.org/Graphics/SVG/1.1/DTD/svg11.dtd">
<svg version="1.1" fill="#a6a6a6" id="Calque_1" xmlns="http://www.w3.org/2000/svg" xmlns:xlink="http://www.w3.org/1999/xlink" x="0px" y="0px"
	 viewBox="0 0 25 25" enable-background="new 0 0 25 25" xml:space="preserve">
<g>
	<g>
		<defs>
			<rect id="SVGID_1_" x="0.2" y="0.2" width="24.6" height="24.7"/>
		</defs>
		<clipPath id="SVGID_2_">
			<use xlink:href="#SVGID_1_"  overflow="visible"/>
		</clipPath>
		<path clip-path="url(#SVGID_2_)" d="M14.7,0.2c-5.4,0-9.9,4.4-9.9,9.9c0,2.3,0.8,4.5,2.2,6.2l-6.5,6.5c-0.4,0.4-0.4,1.1,0,1.5
			c0.4,0.4,1.1,0.4,1.5,0l6.5-6.5c1.7,1.4,3.8,2.2,6.2,2.2c5.4,0,9.9-4.4,9.9-9.9S20.2,0.2,14.7,0.2L14.7,0.2z M14.7,18.4
			c-4.6,0-8.3-3.7-8.3-8.3c0-4.6,3.7-8.3,8.3-8.3c4.6,0,8.3,3.7,8.3,8.3C23.1,14.6,19.3,18.4,14.7,18.4L14.7,18.4z M14.7,18.4"/>
	</g>
</g>
</svg>
