<?xml version="1.0" encoding="utf-8"?>
<!-- Generator: Adobe Illustrator 17.1.0, SVG Export Plug-In . SVG Version: 6.00 Build 0)  -->
<!DOCTYPE svg PUBLIC "-//W3C//DTD SVG 1.1//EN" "http://www.w3.org/Graphics/SVG/1.1/DTD/svg11.dtd">
<svg version="1.1" xmlns="http://www.w3.org/2000/svg" xmlns:xlink="http://www.w3.org/1999/xlink" x="0px" y="0px"
	 viewBox="0 0 25 25" enable-background="new 0 0 25 25" xml:space="preserve">
<g id="Calque_2">
	<rect y="-0.3" display="none" fill="#E87474" width="25" height="25.3"/>
</g>
<g id="Calque_1">
	<g>
		<path fill="#FFFFFF" d="M20.8,18.1c0.9,0,1.7-0.8,1.7-1.7V5.6c0-0.9-0.7-1.7-1.7-1.7h-9.2c-0.9,0-1.7,0.8-1.7,1.7v1.7H7.5
			C6.9,7.4,6.4,7.6,6,7.9l-2.1,2.2c-0.4,0.4-0.6,0.9-0.6,1.5V16c-0.5,0.1-0.8,0.5-0.8,1.1s0.5,1.1,1,1.1H5c0.1,1.7,1.5,3,3.1,3
			c1.7,0,3-1.3,3.1-3h2.9c0.1,1.7,1.5,3,3.1,3c1.7,0,3-1.3,3.1-3h0.5V18.1z"/>
		<path fill="none" d="M9.2,17.9c0,0.6-0.5,1.1-1,1.1s-1-0.5-1-1.1s0.5-1.1,1-1.1S9.2,17.3,9.2,17.9z"/>
		<path fill="none" d="M18.3,17.9c0,0.6-0.5,1.1-1,1.1c-0.6,0-1-0.5-1-1.1s0.5-1.1,1-1.1C17.9,16.8,18.3,17.3,18.3,17.9z"/>
		<path fill="none" d="M5.4,12.9v-1.1c0-0.4,0.2-0.6,0.5-1L6.8,10c0.3-0.3,0.5-0.5,0.9-0.5H10v3.4H5.4z"/>
	</g>
</g>
</svg>
